<?xml version="1.0" encoding="UTF-8"?>
            <svg width="117px" height="41px" viewBox="0 0 117 41" version="1.1" xmlns="http://www.w3.org/2000/svg" xmlns:xlink="http://www.w3.org/1999/xlink">
              <!-- Generator: Sketch 62 (91390) - https://sketch.com -->
              <title>logo/color</title>
              <desc>Created with Sketch.</desc>
              <g id="Symbols" stroke="none" stroke-width="1" fill="none" fill-rule="evenodd">
                <g id="logo/color" fill-rule="nonzero">
                  <g id="LincolnElectric-Logo">
                    <path d="M15.3548519,36.0268085 C15.3851857,38.7246073 17.5890682,40.8890738 20.2822066,40.8662207 L110.807972,40.8662207 C113.500728,40.8890675 115.703951,38.7242381 115.733026,36.0268085 L115.733026,21.6035983 C115.703951,18.9061687 113.500728,16.7413393 110.807972,16.7643682 L100.847446,16.7643682 L100.847446,5.78622902 C100.847446,3.14769641 98.6460093,1 95.9384946,1 L4.90895189,1 C2.20373754,1 0,3.14769641 0,5.78622902 L0,19.5526865 C0,22.1912191 2.20373754,24.3366111 4.90895189,24.3366111 L15.3709543,24.3366111 L15.3548519,36.0268085 Z" id="Path" fill="#FFFFFF"></path>
                    <g id="logo/color" transform="translate(0.233026, 0.366221)">
                      <g id="LincolnElectric-Logo" transform="translate(0.266974, 0.133779)">
                        <path d="M15.3548519,35.0268085 C15.3851857,37.7246073 17.5890682,39.8890738 20.2822066,39.8662207 L110.807972,39.8662207 C113.500728,39.8890675 115.703951,37.7242381 115.733026,35.0268085 L115.733026,20.6035983 C115.703951,17.9061687 113.500728,15.7413393 110.807972,15.7643682 L100.847446,15.7643682 L100.847446,4.78622902 C100.847446,2.14769641 98.6460093,0 95.9384946,0 L4.90895189,0 C2.20373754,0 0,2.14769641 0,4.78622902 L0,18.5526865 C0,21.1912191 2.20373754,23.3366111 4.90895189,23.3366111 L15.3709543,23.3366111 L15.3548519,35.0268085 Z" id="Path" fill="#FFFFFF"></path>
                        <path d="M104.103579,10.4361151 C105.239241,10.4639412 106.140103,11.4041118 106.121702,12.5422983 C106.103302,13.6804848 105.172522,14.5909223 104.036556,14.5818729 C102.900591,14.5728235 101.984374,13.6476723 101.984034,12.5093365 C101.977383,11.948591 102.200246,11.4095905 102.600717,11.0178721 C103.001187,10.6261537 103.544307,10.4159124 104.103579,10.4361151 Z M104.103579,14.1218421 C104.765289,14.1472187 105.376024,13.7672187 105.646777,13.1616639 C105.917529,12.5561092 105.793994,11.8464551 105.334629,11.3685208 C104.875265,10.8905864 104.172206,10.7402306 103.55815,10.988604 C102.944094,11.2369774 102.542203,11.8342639 102.542656,12.4978186 C102.52579,12.9237433 102.682617,13.3382075 102.977057,13.6458535 C103.271497,13.9534996 103.678194,14.1278361 104.103579,14.1287528 L104.103579,14.1218421 Z M103.280589,11.3299039 L104.151855,11.3299039 C104.731166,11.3299039 105.057604,11.5141902 105.057604,12.0209777 C105.069744,12.186721 105.010125,12.3496849 104.893958,12.4682955 C104.777791,12.5869062 104.616308,12.6496938 104.450706,12.6406405 L105.071397,13.6542155 L104.588637,13.6542155 L104.025418,12.6636763 L103.738061,12.6636763 L103.738061,13.6542155 L103.27829,13.6542155 L103.280589,11.3299039 Z M103.74036,12.2974072 L104.151855,12.2974072 C104.411626,12.2974072 104.611626,12.26055 104.611626,11.9772097 C104.611626,11.7284231 104.344959,11.6892623 104.135763,11.6892623 L103.738061,11.6892623 L103.74036,12.2974072 Z" id="Shape" fill="#FFFFFF"></path>
                        <path d="M83.5539685,27.4247492 L81.2934407,27.4247492 L81.2934407,30.2341137 L83.5539685,30.2341137 C84.8065747,30.2341137 84.7639233,29.7917488 84.7639233,28.6128811 C84.7639233,27.6864624 84.5147489,27.4247492 83.5539685,27.4247492 Z" id="Path" fill="#AC1E2D"></path>
                        <path d="M36.3746366,35.2887904 L27.9201304,35.2887904 L27.9201304,24.9643625 L36.2664816,24.9643625 L36.2664816,27.2246311 L31.0060022,27.2246311 L31.0060022,29.1116444 L35.9443175,29.1116444 L35.9443175,31.0263062 L31.0060022,31.0263062 L31.0060022,33.0377379 L36.3746366,33.0377379 L36.3746366,35.2887904 Z M45.9820301,35.2887904 L38.0038665,35.2887904 L38.0038665,24.9643625 L41.11275,24.9643625 L41.11275,32.8971911 L45.9820301,32.8971911 L45.9820301,35.2887904 Z M55.8770701,35.2887904 L47.4317685,35.2887904 L47.4317685,24.9643625 L55.7781197,24.9643625 L55.7781197,27.2246311 L50.5176403,27.2246311 L50.5176403,29.1116444 L55.4559556,29.1116444 L55.4559556,31.0263062 L50.5176403,31.0263062 L50.5176403,33.0377379 L55.8770701,33.0377379 L55.8770701,35.2887904 Z M67.415147,31.6806551 C67.415147,32.8096374 67.3990388,33.8280255 66.3381985,34.6137051 C65.2773581,35.3993846 63.9817982,35.371736 62.6241067,35.371736 C59.4392845,35.371736 57.1151007,35.2334933 57.1151007,31.4548587 L57.1151007,28.7936861 C57.1151007,25.3767866 59.1861556,24.8768087 62.6241067,24.8768087 C65.8457476,24.8768087 67.3369071,25.1671185 67.3990388,28.2637556 L67.3990388,28.6646596 L64.1773979,28.6646596 L64.1773979,28.2637556 C64.0669416,27.3421374 63.3328677,27.2730161 62.2743285,27.2730161 C60.4932213,27.2730161 60.3229346,27.7545616 60.3229346,29.2291507 L60.3229346,30.8419826 C60.3229346,32.385693 60.3988733,32.9778327 62.2743285,32.9778327 C63.5675873,32.9778327 64.1935061,32.8948871 64.1935061,31.6829592 L64.1935061,31.371913 L67.415147,31.371913 L67.415147,31.6806551 Z M77.1191897,27.3559617 L74.0379203,27.3559617 L74.0379203,35.2887904 L70.9796626,35.2887904 L70.9796626,27.3605698 L68.0410658,27.3605698 L68.0410658,24.9643625 L77.1283944,24.9643625 L77.1191897,27.3559617 Z M87.727593,33.2082373 L87.727593,35.2818783 L84.7360693,35.2818783 L84.7360693,33.8349377 C84.7659846,33.0630824 84.4070017,32.5400641 83.5118458,32.5400641 L81.2060713,32.5400641 L81.2060713,35.2887904 L78.2145476,35.2887904 L78.2145476,24.9643625 L83.9812849,24.9643625 C86.5655011,25.0058353 87.8357481,25.5150293 87.8357481,28.0909522 C87.8357481,29.8120742 87.8357481,30.8166381 85.7140675,31.270535 L85.7140675,31.371913 C86.9428934,31.422602 87.7367977,32.0423903 87.7367977,33.2151494 L87.727593,33.2082373 Z M92.7395459,35.2818783 L89.5409167,35.2818783 L89.5409167,24.9643625 L92.7487505,24.9643625 L92.7395459,35.2818783 Z M104.397284,31.673743 C104.397284,32.8027253 104.381175,33.8211134 103.352552,34.6067929 C102.323928,35.3924724 101.065186,35.3648239 99.7489161,35.3648239 C96.6584419,35.3648239 94.4032933,35.2265812 94.4032933,31.4479465 L94.4032933,28.7936861 C94.4032933,25.3767866 96.4168189,24.8768087 99.7489161,24.8768087 C102.867004,24.8768087 104.321345,25.1671185 104.381175,28.2637556 L104.381175,28.6646596 L101.272292,28.6646596 L101.272292,28.2637556 C101.166438,27.3421374 100.453075,27.2730161 99.4313543,27.2730161 C97.7054752,27.2730161 97.5374897,27.7545616 97.5374897,29.2291507 L97.5374897,30.8419826 C97.5374897,32.385693 97.6134284,32.9778327 99.4313543,32.9778327 C100.687794,32.9778327 101.293003,32.8948871 101.293003,31.6829592 L101.293003,31.371913 L104.413392,31.371913 L104.397284,31.673743 Z M110.755422,16.8564263 L99.3830297,16.8564263 L99.3830297,18.612109 C99.3830297,20.0175768 98.0161335,21.8608132 95.843827,21.8723334 C94.5022437,21.8723334 17.7696603,21.8723334 16.4188723,21.8723334 L16.4188723,34.9754402 C16.4466521,37.0376759 18.1377046,38.6875312 20.1973968,38.661913 L110.755422,38.661913 C112.814221,38.6862491 114.503863,37.0367654 114.531646,34.9754402 L114.531646,20.5428991 C114.502604,18.4821155 112.813712,16.8333636 110.755422,16.8564263 Z" id="Shape" fill="#AC1E2D"></path>
                        <path d="M60.3348521,7.89297659 C58.3660826,7.89297659 57.722267,8.10075039 57.6662831,10.180797 L57.6662831,13.3435761 C57.722267,15.4420915 58.3660826,15.6521739 60.3348521,15.6521739 C62.3036215,15.6521739 63.0057537,15.4444001 63.0057537,13.3435761 L63.0057537,10.1761798 C63.0057537,8.0961332 62.3059542,7.89297659 60.3348521,7.89297659 Z" id="Path" fill="#231F20"></path>
                        <path d="M16.402142,18.8436938 L6.81104088,18.8436938 L6.81104088,4.83456191 L10.5599755,4.83456191 L10.5599755,15.5927653 L16.402142,15.5927653 L16.402142,18.8436938 Z M21.8666517,18.8436938 L18.1269283,18.8436938 L18.1269283,4.83456191 L21.8666517,4.83456191 L21.8666517,18.8436938 Z M38.0160857,18.8436938 L31.6419757,18.8436938 L27.6788821,8.08318963 L27.529201,8.08318963 L27.7594795,18.8436938 L24.0128477,18.8436938 L24.0128477,4.83456191 L30.3316908,4.83456191 L34.3523541,15.5927653 L34.5089435,15.5927653 L34.278665,4.83456191 L38.0183884,4.83456191 L38.0160857,18.8436938 Z M52.45455,13.9569478 C52.45455,15.4869318 52.4361277,16.8696693 51.1649902,17.9349063 C49.8938527,19.0001432 48.3394725,18.9610309 46.7137061,18.9610309 C42.9002935,18.9610309 40.1139231,18.7746719 40.1139231,13.6693568 L40.1139231,10.0273047 C40.1139231,5.39363878 42.6009314,4.72182625 46.7137061,4.72182625 C50.566266,4.72182625 52.3601358,5.11294998 52.4361277,9.32328194 L52.4361277,9.86625371 L48.5835678,9.86625371 L48.5835678,9.31637975 C48.452309,8.06478381 47.5749478,7.97045397 46.3038103,7.97045397 C44.171431,7.97045397 43.9664831,8.6261614 43.9664831,10.6231932 L43.9664831,12.8065839 C43.9664831,14.9002462 44.0585945,15.7032002 46.3038103,15.7032002 C47.8535848,15.7032002 48.6065956,15.5904646 48.6065956,13.9477449 L48.6065956,13.5382153 L52.4591556,13.5382153 L52.45455,13.9569478 Z M66.8124169,13.8258063 C66.8124169,18.139671 64.1204608,18.9610309 60.3231677,18.9610309 C56.5258746,18.9610309 53.8362213,18.139671 53.8362213,13.8258063 L53.8362213,9.85935152 C53.8362213,5.54318609 56.5281774,4.72182625 60.3231677,4.72182625 C64.118158,4.72182625 66.8124169,5.54318609 66.8124169,9.85935152 L66.8124169,13.8258063 Z M78.0960653,18.8505959 L68.3598887,18.8505959 L68.3598887,4.83456191 L72.1594846,4.83456191 L72.1594846,15.5927653 L78.1006709,15.5927653 L78.0960653,18.8505959 Z M93.6536834,18.8505959 L87.2818762,18.8505959 L83.3279937,8.08318963 L83.1783126,8.08318963 L83.4085912,18.8436938 L79.655051,18.8436938 L79.655051,4.83456191 L85.9738941,4.83456191 L90.0060713,15.5927653 L90.1534496,15.5927653 L89.923171,4.83456191 L93.6628945,4.83456191 L93.6536834,18.8505959 Z M99.7100089,4.83226119 C99.7100089,2.83292869 98.0220672,1.20401338 95.9472576,1.20401338 L4.83064545,1.20401338 C2.7581386,1.20401338 1.06789413,2.83292869 1.06789413,4.83226119 L1.06789413,18.5814108 C1.06789413,20.5807433 2.75583582,22.2073579 4.83064545,22.2073579 L95.9518632,22.2073579 C98.02437,22.2073579 99.7146145,20.5807433 99.7146145,18.5814108 L99.7100089,4.83226119 Z" id="Shape" fill="#231F20"></path>
                      </g>
                    </g>
                    <path d="M104.103579,11.4361151 C105.239241,11.4639412 106.140103,12.4041118 106.121702,13.5422983 C106.103302,14.6804848 105.172522,15.5909223 104.036556,15.5818729 C102.900591,15.5728235 101.984374,14.6476723 101.984034,13.5093365 C101.977383,12.948591 102.200246,12.4095905 102.600717,12.0178721 C103.001187,11.6261537 103.544307,11.4159124 104.103579,11.4361151 Z M104.103579,15.1218421 C104.765289,15.1472187 105.376024,14.7672187 105.646777,14.1616639 C105.917529,13.5561092 105.793994,12.8464551 105.334629,12.3685208 C104.875265,11.8905864 104.172206,11.7402306 103.55815,11.988604 C102.944094,12.2369774 102.542203,12.8342639 102.542656,13.4978186 C102.52579,13.9237433 102.682617,14.3382075 102.977057,14.6458535 C103.271497,14.9534996 103.678194,15.1278361 104.103579,15.1287528 L104.103579,15.1218421 Z M103.280589,12.3299039 L104.151855,12.3299039 C104.731166,12.3299039 105.057604,12.5141902 105.057604,13.0209777 C105.069744,13.186721 105.010125,13.3496849 104.893958,13.4682955 C104.777791,13.5869062 104.616308,13.6496938 104.450706,13.6406405 L105.071397,14.6542155 L104.588637,14.6542155 L104.025418,13.6636763 L103.738061,13.6636763 L103.738061,14.6542155 L103.27829,14.6542155 L103.280589,12.3299039 Z M103.74036,13.2974072 L104.151855,13.2974072 C104.411626,13.2974072 104.611626,13.26055 104.611626,12.9772097 C104.611626,12.7284231 104.344959,12.6892623 104.135763,12.6892623 L103.738061,12.6892623 L103.74036,13.2974072 Z" id="Shape" fill="#171717"></path>
                    <path d="M83.5539685,28.4247492 L81.2934407,28.4247492 L81.2934407,31.2341137 L83.5539685,31.2341137 C84.8065747,31.2341137 84.7639233,30.7917488 84.7639233,29.6128811 C84.7639233,28.6864624 84.5147489,28.4247492 83.5539685,28.4247492 Z" id="Path" fill="#AC1E2D"></path>
                    <path d="M36.3746366,36.2887904 L27.9201304,36.2887904 L27.9201304,25.9643625 L36.2664816,25.9643625 L36.2664816,28.2246311 L31.0060022,28.2246311 L31.0060022,30.1116444 L35.9443175,30.1116444 L35.9443175,32.0263062 L31.0060022,32.0263062 L31.0060022,34.0377379 L36.3746366,34.0377379 L36.3746366,36.2887904 Z M45.9820301,36.2887904 L38.0038665,36.2887904 L38.0038665,25.9643625 L41.11275,25.9643625 L41.11275,33.8971911 L45.9820301,33.8971911 L45.9820301,36.2887904 Z M55.8770701,36.2887904 L47.4317685,36.2887904 L47.4317685,25.9643625 L55.7781197,25.9643625 L55.7781197,28.2246311 L50.5176403,28.2246311 L50.5176403,30.1116444 L55.4559556,30.1116444 L55.4559556,32.0263062 L50.5176403,32.0263062 L50.5176403,34.0377379 L55.8770701,34.0377379 L55.8770701,36.2887904 Z M67.415147,32.6806551 C67.415147,33.8096374 67.3990388,34.8280255 66.3381985,35.6137051 C65.2773581,36.3993846 63.9817982,36.371736 62.6241067,36.371736 C59.4392845,36.371736 57.1151007,36.2334933 57.1151007,32.4548587 L57.1151007,29.7936861 C57.1151007,26.3767866 59.1861556,25.8768087 62.6241067,25.8768087 C65.8457476,25.8768087 67.3369071,26.1671185 67.3990388,29.2637556 L67.3990388,29.6646596 L64.1773979,29.6646596 L64.1773979,29.2637556 C64.0669416,28.3421374 63.3328677,28.2730161 62.2743285,28.2730161 C60.4932213,28.2730161 60.3229346,28.7545616 60.3229346,30.2291507 L60.3229346,31.8419826 C60.3229346,33.385693 60.3988733,33.9778327 62.2743285,33.9778327 C63.5675873,33.9778327 64.1935061,33.8948871 64.1935061,32.6829592 L64.1935061,32.371913 L67.415147,32.371913 L67.415147,32.6806551 Z M77.1191897,28.3559617 L74.0379203,28.3559617 L74.0379203,36.2887904 L70.9796626,36.2887904 L70.9796626,28.3605698 L68.0410658,28.3605698 L68.0410658,25.9643625 L77.1283944,25.9643625 L77.1191897,28.3559617 Z M87.727593,34.2082373 L87.727593,36.2818783 L84.7360693,36.2818783 L84.7360693,34.8349377 C84.7659846,34.0630824 84.4070017,33.5400641 83.5118458,33.5400641 L81.2060713,33.5400641 L81.2060713,36.2887904 L78.2145476,36.2887904 L78.2145476,25.9643625 L83.9812849,25.9643625 C86.5655011,26.0058353 87.8357481,26.5150293 87.8357481,29.0909522 C87.8357481,30.8120742 87.8357481,31.8166381 85.7140675,32.270535 L85.7140675,32.371913 C86.9428934,32.422602 87.7367977,33.0423903 87.7367977,34.2151494 L87.727593,34.2082373 Z M92.7395459,36.2818783 L89.5409167,36.2818783 L89.5409167,25.9643625 L92.7487505,25.9643625 L92.7395459,36.2818783 Z M104.397284,32.673743 C104.397284,33.8027253 104.381175,34.8211134 103.352552,35.6067929 C102.323928,36.3924724 101.065186,36.3648239 99.7489161,36.3648239 C96.6584419,36.3648239 94.4032933,36.2265812 94.4032933,32.4479465 L94.4032933,29.7936861 C94.4032933,26.3767866 96.4168189,25.8768087 99.7489161,25.8768087 C102.867004,25.8768087 104.321345,26.1671185 104.381175,29.2637556 L104.381175,29.6646596 L101.272292,29.6646596 L101.272292,29.2637556 C101.166438,28.3421374 100.453075,28.2730161 99.4313543,28.2730161 C97.7054752,28.2730161 97.5374897,28.7545616 97.5374897,30.2291507 L97.5374897,31.8419826 C97.5374897,33.385693 97.6134284,33.9778327 99.4313543,33.9778327 C100.687794,33.9778327 101.293003,33.8948871 101.293003,32.6829592 L101.293003,32.371913 L104.413392,32.371913 L104.397284,32.673743 Z M110.755422,17.8564263 L99.3830297,17.8564263 L99.3830297,19.612109 C99.3830297,21.0175768 98.0161335,22.8608132 95.843827,22.8723334 C94.5022437,22.8723334 17.7696603,22.8723334 16.4188723,22.8723334 L16.4188723,35.9754402 C16.4466521,38.0376759 18.1377046,39.6875312 20.1973968,39.661913 L110.755422,39.661913 C112.814221,39.6862491 114.503863,38.0367654 114.531646,35.9754402 L114.531646,21.5428991 C114.502604,19.4821155 112.813712,17.8333636 110.755422,17.8564263 Z" id="Shape" fill="#AC1E2D"></path>
                    <path d="M60.3348521,8.89297659 C58.3660826,8.89297659 57.722267,9.10075039 57.6662831,11.180797 L57.6662831,14.3435761 C57.722267,16.4420915 58.3660826,16.6521739 60.3348521,16.6521739 C62.3036215,16.6521739 63.0057537,16.4444001 63.0057537,14.3435761 L63.0057537,11.1761798 C63.0057537,9.0961332 62.3059542,8.89297659 60.3348521,8.89297659 Z" id="Path" fill="#231F20"></path>
                    <path d="M16.402142,19.8436938 L6.81104088,19.8436938 L6.81104088,5.83456191 L10.5599755,5.83456191 L10.5599755,16.5927653 L16.402142,16.5927653 L16.402142,19.8436938 Z M21.8666517,19.8436938 L18.1269283,19.8436938 L18.1269283,5.83456191 L21.8666517,5.83456191 L21.8666517,19.8436938 Z M38.0160857,19.8436938 L31.6419757,19.8436938 L27.6788821,9.08318963 L27.529201,9.08318963 L27.7594795,19.8436938 L24.0128477,19.8436938 L24.0128477,5.83456191 L30.3316908,5.83456191 L34.3523541,16.5927653 L34.5089435,16.5927653 L34.278665,5.83456191 L38.0183884,5.83456191 L38.0160857,19.8436938 Z M52.45455,14.9569478 C52.45455,16.4869318 52.4361277,17.8696693 51.1649902,18.9349063 C49.8938527,20.0001432 48.3394725,19.9610309 46.7137061,19.9610309 C42.9002935,19.9610309 40.1139231,19.7746719 40.1139231,14.6693568 L40.1139231,11.0273047 C40.1139231,6.39363878 42.6009314,5.72182625 46.7137061,5.72182625 C50.566266,5.72182625 52.3601358,6.11294998 52.4361277,10.3232819 L52.4361277,10.8662537 L48.5835678,10.8662537 L48.5835678,10.3163798 C48.452309,9.06478381 47.5749478,8.97045397 46.3038103,8.97045397 C44.171431,8.97045397 43.9664831,9.6261614 43.9664831,11.6231932 L43.9664831,13.8065839 C43.9664831,15.9002462 44.0585945,16.7032002 46.3038103,16.7032002 C47.8535848,16.7032002 48.6065956,16.5904646 48.6065956,14.9477449 L48.6065956,14.5382153 L52.4591556,14.5382153 L52.45455,14.9569478 Z M66.8124169,14.8258063 C66.8124169,19.139671 64.1204608,19.9610309 60.3231677,19.9610309 C56.5258746,19.9610309 53.8362213,19.139671 53.8362213,14.8258063 L53.8362213,10.8593515 C53.8362213,6.54318609 56.5281774,5.72182625 60.3231677,5.72182625 C64.118158,5.72182625 66.8124169,6.54318609 66.8124169,10.8593515 L66.8124169,14.8258063 Z M78.0960653,19.8505959 L68.3598887,19.8505959 L68.3598887,5.83456191 L72.1594846,5.83456191 L72.1594846,16.5927653 L78.1006709,16.5927653 L78.0960653,19.8505959 Z M93.6536834,19.8505959 L87.2818762,19.8505959 L83.3279937,9.08318963 L83.1783126,9.08318963 L83.4085912,19.8436938 L79.655051,19.8436938 L79.655051,5.83456191 L85.9738941,5.83456191 L90.0060713,16.5927653 L90.1534496,16.5927653 L89.923171,5.83456191 L93.6628945,5.83456191 L93.6536834,19.8505959 Z M99.7100089,5.83226119 C99.7100089,3.83292869 98.0220672,2.20401338 95.9472576,2.20401338 L4.83064545,2.20401338 C2.7581386,2.20401338 1.06789413,3.83292869 1.06789413,5.83226119 L1.06789413,19.5814108 C1.06789413,21.5807433 2.75583582,23.2073579 4.83064545,23.2073579 L95.9518632,23.2073579 C98.02437,23.2073579 99.7146145,21.5807433 99.7146145,19.5814108 L99.7100089,5.83226119 Z" id="Shape" fill="#231F20"></path>
                  </g>
                </g>
              </g>
            </svg>